<svg width="800" height="600" viewBox="0 0 800 600" xmlns="http://www.w3.org/2000/svg" xmlns:xlink="http://www.w3.org/1999/xlink" data-cache="1689995391612">
<style>
path.line-0 {
  stroke-dasharray: 138 143;
  stroke-dashoffset: 138;
  animation: draw-0 2.41s ease forwards infinite;
}
@keyframes draw-0 {
  0% { stroke-dashoffset: 138; }
  11.44% { stroke-dashoffset: 0; }
  100% { stroke-dashoffset: 0; }
}
path.line-1 {
  stroke-dasharray: 222 227;
  stroke-dashoffset: 222;
  animation: draw-1 2.41s ease forwards infinite;
}
@keyframes draw-1 {
  0% { stroke-dashoffset: 222; }
  11.44% { stroke-dashoffset: 222; }
  29.84% { stroke-dashoffset: 0; }
  100% { stroke-dashoffset: 0; }
}
path.line-2 {
  stroke-dasharray: 192 197;
  stroke-dashoffset: 192;
  animation: draw-2 2.41s ease forwards infinite;
}
@keyframes draw-2 {
  0% { stroke-dashoffset: 192; }
  29.84% { stroke-dashoffset: 192; }
  45.76% { stroke-dashoffset: 0; }
  100% { stroke-dashoffset: 0; }
}
path.line-3 {
  stroke-dasharray: 155 160;
  stroke-dashoffset: 155;
  animation: draw-3 2.41s ease forwards infinite;
}
@keyframes draw-3 {
  0% { stroke-dashoffset: 155; }
  45.76% { stroke-dashoffset: 155; }
  58.61% { stroke-dashoffset: 0; }
  100% { stroke-dashoffset: 0; }
}
path.line-4 {
  stroke-dasharray: 181 186;
  stroke-dashoffset: 181;
  animation: draw-4 2.41s ease forwards infinite;
}
@keyframes draw-4 {
  0% { stroke-dashoffset: 181; }
  58.61% { stroke-dashoffset: 181; }
  73.62% { stroke-dashoffset: 0; }
  100% { stroke-dashoffset: 0; }
}
path.line-5 {
  stroke-dasharray: 319 324;
  stroke-dashoffset: 319;
  animation: draw-5 2.41s ease forwards infinite;
}
@keyframes draw-5 {
  0% { stroke-dashoffset: 319; }
  73.62% { stroke-dashoffset: 319; }
  100.07% { stroke-dashoffset: 0; }
  100% { stroke-dashoffset: 0; }
}
</style><rect x="0" y="0" width="800" height="600" fill="#fff">

</rect><g mask="url(#brush)">
<path d="M107,213L107,217L107,224L107,232L106,241L104,251L102,262L101,273L99,284L98,294L97,302L97,310L96,317L96,322L96,328L96,332L95,335L95,336L95,337L95,336L95,335L95,331L95,328L95,324" stroke-width="10" stroke-linecap="round" stroke-linejoin="round" stroke="#000" fill="none" class="line-0">

</path><path d="M104,218L107,218L109,219L113,220L117,221L121,223L125,224L128,226L130,227L131,228L132,229L132,230L132,232L132,234L130,237L127,240L122,244L117,249L111,253L106,258L101,263L97,266L95,269L93,271L93,272L93,273L94,273L97,273L102,272L106,272L113,272L118,272L125,272L131,273L137,274L142,276L146,278L149,280L150,281L151,283L151,285L151,287L151,289L148,293L144,296L138,300L133,303L128,307L123,309L118,312L114,314L110,316L108,316L105,317L103,318L101,318L100,318L99,318L98,318L97,318" stroke-width="10" stroke-linecap="round" stroke-linejoin="round" stroke="#000" fill="none" class="line-1">

</path><path d="M227,281L227,280L227,279L226,278L225,277L224,276L223,275L222,273L220,271L218,270L215,268L213,267L210,267L207,267L205,267L202,267L200,269L197,271L193,275L190,279L188,285L186,290L185,296L185,300L185,304L186,306L188,308L189,309L191,310L192,310L194,308L196,305L198,302L200,299L203,295L206,291L208,288L210,285L212,283L213,282L214,281L214,280L215,279L215,278L215,277L216,277L217,277L218,277L220,278L221,280L223,284L226,289L227,293L229,299L231,304L232,309L233,314L233,318L234,321L234,322L234,323L235,323L236,322L237,319L238,317L239,314L240,312" stroke-width="10" stroke-linecap="round" stroke-linejoin="round" stroke="#000" fill="none" class="line-2">

</path><path d="M281,259L281,260L281,264L281,269L281,274L281,282L280,289L279,297L278,304L277,310L277,314L276,318L276,322L275,324L275,325L275,326L275,325L275,323L275,320L276,316L277,312L279,306L280,301L283,294L285,289L287,284L290,281L292,278L294,276L296,273L298,271L300,269L302,267L304,265L305,264L306,264L307,264L308,265L309,266L311,268L312,270L314,271L315,272L315,273L316,274" stroke-width="10" stroke-linecap="round" stroke-linejoin="round" stroke="#000" fill="none" class="line-3">

</path><path d="M358,264L358,266L358,269L358,273L358,278L357,285L356,293L354,301L353,309L352,317L351,322L351,326L351,329L351,330L351,329L352,327L352,323L352,317L353,311L354,305L356,298L359,292L362,286L365,281L369,278L371,276L374,274L376,272L378,271L380,270L382,269L385,267L387,266L389,266L390,265L391,265L392,265L394,267L396,270L398,273L400,277L401,281L403,284L404,287L404,289L405,290L405,291" stroke-width="10" stroke-linecap="round" stroke-linejoin="round" stroke="#000" fill="none" class="line-4">

</path><path d="M452,290L452,292L452,295L452,298L452,301L454,305L455,308L456,311L458,314L460,316L461,317L463,318L464,318L465,318L467,318L468,318L470,316L473,314L475,311L478,307L481,303L483,299L485,296L487,292L488,288L489,285L490,281L492,278L493,274L494,272L494,270L495,268L495,270L495,273L495,276L494,280L493,286L492,292L491,299L490,308L488,316L485,327L483,338L480,348L478,357L476,366L473,374L470,381L468,388L465,393L462,398L459,402L456,406L452,409L446,413L439,416L430,419L421,421L409,423L399,424L387,426L381,426" stroke-width="10" stroke-linecap="round" stroke-linejoin="round" stroke="#000" fill="none" class="line-5">

</path>
</g><mask id="brush">
<rect x="0" y="0" width="100%" height="100%" fill="black">

</rect><path d="M107.01,213L107.55797522438614,224L107.90465921912188,232.00061105549074L107.17055773093116,241.13044791901194L105.26985075435346,251.25396658665343L103.35577871747986,262.2460093149788L102.41053204299085,273.1287337855831L100.40045750755762,284.2542563082215L99.32231179970466,294.1322412245018L98.51029565363649,302.187317863636L98.59848996010555,310.00227225320145L97.64435692108735,317.23252345964L97.75820518685549,322L97.64333721999898,328L97.56386002297616,332.0254449613965L96.38981740032929,335.4382822452758L96.42917984724956,336L96.38796525044546,337L96.34763094766089,337.3321721923201L96.22897227088008,337.64503852121555L96.03888566797272,337.92041518095095L95.78841898123095,338.142297267124L95.49212934625632,338.2977889824611L95.16723713055468,338.37785314116127L94.8326250849676,338.377836410559L94.50774087730629,338.2977397630376L94.21146679298462,338.1422184195145L93.96102229570377,337.9203112877823L93.77096323141276,337.6449156207635L93.65233584185809,337.3320374275647L93.61203475649437,336.9998612034752L93.70382474925276,336L93.75984472529805,335L94.12821356776543,331L94.45875272887609,328L94.99,324L95,324L95.01,324L95.54124727112391,328L95.87178643223457,331L96.24015527470195,335L96.29617525074724,336L96.38796524350563,336.9998612034752L96.34766415814191,337.3320374275647L96.22903676858724,337.6449156207635L96.03897770429623,337.9203112877823L95.78853320701538,338.1422184195145L95.49225912269371,338.2977397630376L95.1673749150324,338.377836410559L94.83276286944532,338.37785314116127L94.50787065374368,338.2977889824611L94.21158101876905,338.142297267124L93.96111433202728,337.92041518095095L93.77102772911992,337.64503852121555L93.65236905233911,337.3321721923201L93.61203474955454,337L93.57082015275044,336L93.61018259967071,334.5617177547242L94.43613997702384,331.9745550386035L94.35666278000102,328L94.24179481314451,322L94.35564307891265,316.76747654036L95.40151003989445,309.99772774679855L95.48970434636351,301.812682136364L96.67768820029534,293.8677587754982L97.59954249244238,283.7457436917785L99.58946795700915,272.8712662144169L100.64422128252014,261.7539906850212L102.73014924564654,250.74603341334657L104.82944226906884,240.86955208098806L106.09534078087812,231.99938894450926L106.44202477561386,224L106.99,213Z" fill="white">

</path><path d="M104.00216930457819,217.99023812939816L113.2517358044677,218.86723757996415L117.37376914385112,219.53710037567836L121.83303434004698,221.31217799622775L125.58410255738939,221.8445847074947L129.42372648011334,223.8599717379825L131.29466580063672,224.51267404178256L133.1052129494782,225.8947870505218L134.4916075026642,227.4287874813756L135.2640736423642,230L135.47766611807174,232L135.58342139179263,234.3435276736646L133.28972465890362,239.2112997512243L129.9859806991147,242.99001720950162L124.70463683561862,247.37611867218862L120.02929031462347,252.05246105494524L113.35776243960616,256.50761547959064L108.93774155931841,260.9377415593184L103.86524877308372,265.87340627023394L99.57151867349928,269.29608233899637L98.63133008178146,271.4409213958753L96.60941871878504,273.27610643724915L97.64702702044964,272L93,268.26076622261274L94,268.1710951514909L96.9810843396468,268.03510282098034L101.04595842893882,267.13345256279564L106,266.95219560912886L113,267.2501479543716L118,267.2157526106455L125.01014854225804,267.46381015213234L131.736282803276,268.58230318034407L137.74941030829729,269.6365468578221L143.66008064276957,271.8532484777756L148.04710674316257,273.91557206380105L151.61891471435763,276.1038713495907L153.44120404658577,277.6689841236947L155.45445764753617,281.03242429398705L156.02173442279047,285L156.1128616391835,287L155.98447992902447,289.62305999112806L152.0013928217084,296.0717763075741L146.93090630016792,299.908570458333L140.38185673624145,303.57320189415765L135.04581016466767,306.4003787252077L130.14727311080938,309.75388518895494L124.17374467270196,311.91715782434795L119.36342944892361,314.2735464688032L115.02119939780138,316.04239879560276L110.73476092889858,317.6634487958155L108.02668810396017,317.6402641851948L105.40137195496962,318.19843459105346L103.38713223357894,318.8764410605414L101,318.6745295985981L100,318.51882844390093L97,318.01L97,318L97,317.99L100,317.48117155609907L101,317.3254704014019L102.61286776642106,317.1235589394586L104.59862804503038,315.80156540894654L107.97331189603983,314.3597358148052L109.26523907110142,314.3365512041845L112.97880060219862,311.95760120439724L116.63657055107639,309.7264535311968L121.82625532729804,306.08284217565205L125.8527268891906,304.24611481104506L130.95418983533233,299.5996212747923L135.61814326375855,296.42679810584235L141.06909369983208,292.091429541667L143.9986071782916,289.9282236924259L146.01552007097553,288.37694000887194L145.8871383608165,287L145.97826557720953,285L146.54554235246383,284.96757570601295L146.55879595341423,284.3310158763053L146.38108528564237,283.8961286504093L143.95289325683743,282.08442793619895L140.33991935723043,280.1467515222244L136.25058969170271,278.3634531421779L130.263717196724,277.41769681965593L124.98985145774196,276.53618984786766L118,276.7842473893545L113,276.7498520456284L106,277.04780439087114L102.95404157106118,276.86654743720436L97.0189156603532,277.96489717901966L94,277.8289048485091L93,277.73923377738726L88.35297297955036,272L89.39058128121496,268.72389356275085L91.36866991821854,266.5590786041247L94.42848132650072,262.70391766100363L98.13475122691628,260.12659372976606L103.06225844068159,255.0622584406816L108.64223756039384,249.49238452040936L113.97070968537653,245.94753894505476L119.29536316438138,240.62388132781138L124.01401930088531,237.00998279049838L126.71027534109636,234.7887002487757L128.41657860820737,233.6564723263354L128.52233388192826,232L128.7359263576358,230L129.5083924973358,230.5712125186244L128.8947870505218,230.1052129494782L128.70533419936328,229.48732595821744L126.57627351988666,228.1400282620175L124.41589744261061,226.1554152925053L120.16696565995302,224.68782200377225L116.62623085614888,222.46289962432164L112.7482641955323,221.13276242003585L103.99783069542181,218.00976187060184Z" fill="white">

</path><path d="M226.99105572809,281.004472135955L224.1643783292728,277.4349453258377L223.22606933904498,276.77393066095505L222.105328879631,275.86602353876043L220.68493261312852,273.68449925740146L218.76495888353267,272.27589559627114L217.0931759757692,271.809313261341L213.68615383703937,269.9748652286464L211.95410254017585,269.3678407515475L210,269.9121024659188L207,270.202069420683L205,270.4156783080054L202.76418389443873,270.37327091097853L202.77805457549943,271.79930363864065L199.35005711423986,274.49615235757454L196.12186368784376,278.11300082901283L193.72044739921716,281.6968915301527L192.41667419058322,286.4727220281813L190.4358423952599,291.74897290914015L189.7142248854507,296.7748683706684L189.93869632684195,300L190.01547099898266,303.76053256849724L190.61387422147396,303.598455022251L191.77811558179454,304.22188441820543L192.7745901645228,305.1005484720877L193.21857415412248,304.9772989281908L190.8372339121643,304.8673021652082L189.96046550676377,303.9911289626044L191.23385693530707,301.82257129020473L193.20765118363997,298.80510078909333L195.184329420289,295.7889588424265L198.45626198736005,291.59219649052005L201.53244450562107,287.649929511464L203.32075897384829,284.8805059825655L205.31043783981102,281.84775210286665L207.96150881950857,278.96150881950854L208.9155972933575,277.9155972933575L209.3724938601491,278.0818856625008L208.62093510303075,278.78142169132445L210.29423971913684,276.0325384495625L209.02388054394098,278L215,270.98552777673757L216,270.95004893349284L217,270.9174758471546L218.28857696651642,270.95596554631754L223.281254772544,273.078117841184L226.46061342621243,277.2696932868938L228.24112636129755,281.3779566064858L230.6261369084559,286.3032359148193L231.98891565855266,291.7515735175859L233.27456445468252,297.5746638847136L234.753493625908,302.51184459103484L235.50776892860458,308.29844621427907L236.00355452689826,313.41118094160487L235.653907148361,317.9568193035516L236.2110163618213,320.30275069575976L236.22515307852456,322L234,320.8813439754387L234.5848220842099,321.16731601332145L234.66158408089538,320.78356725031597L235.71751045047773,318.5704769024838L237.11000208813917,316.5565813357244L239.99105572809,311.995527864045L240,312L240.00894427191,312.004472135955L238.88999791186083,317.4434186642756L238.28248954952227,319.4295230975162L237.33841591910462,323.21643274968403L235.4151779157901,324.83268398667855L234,325.1186560245613L231.77484692147544,322L231.7889836381787,321.69724930424024L230.346092851639,318.0431806964484L229.99644547310174,314.58881905839513L228.49223107139542,309.70155378572093L227.246506374092,305.48815540896516L224.72543554531748,300.4253361152864L222.01108434144734,294.2484264824141L221.3738630915441,291.6967640851807L217.75887363870245,286.6220433935142L215.53938657378757,282.7303067131062L216.718745227456,282.921882158816L217.71142303348358,283.04403445368246L217,283.0825241528454L216,283.04995106650716L215,283.01447222326243L220.97611945605902,278L219.70576028086316,281.9674615504375L219.37906489696925,281.21857830867555L218.6275061398509,283.9181143374992L217.0844027066425,286.0844027066425L216.03849118049143,287.03849118049146L214.68956216018898,288.15224789713335L212.67924102615171,291.1194940174345L210.46755549437893,294.350070488536L207.54373801263995,298.40780350947995L204.815670579711,302.2110411575735L202.79234881636003,305.19489921090667L200.76614306469293,308.17742870979527L198.03953449323623,312.0088710373956L193.1627660878357,315.1326978347918L188.78142584587752,315.0227010718092L185.2254098354772,312.8994515279123L184.22188441820546,311.77811558179457L181.38612577852604,308.401544977749L179.98452900101734,304.23946743150276L180.06130367315805,300L180.2857751145493,295.2251316293316L181.5641576047401,288.25102709085985L183.58332580941678,283.5272779718187L186.27955260078284,276.3031084698473L189.87813631215624,271.88699917098717L194.64994288576014,267.50384764242546L197.22194542450057,266.20069636135935L201.23581610556127,263.62672908902147L205,263.5843216919946L207,263.797930579317L210,264.0878975340812L214.04589745982415,264.6321592484525L216.31384616296063,266.0251347713536L218.9068240242308,268.190686738659L221.23504111646733,269.72410440372886L223.31506738687148,272.31550074259854L223.894671120369,274.13397646123957L224.77393066095502,275.22606933904495L225.8356216707272,276.5650546741623L227.00894427191,280.995527864045Z" fill="white">

</path><path d="M281.01,259L281.91285938999306,269L282.2852824829983,274L282.6416834566285,282.00233365274926L281.9775372462717,289.2824998749063L281.2220569058526,297.2777632039299L280.5042571243207,304.35776707697744L279.81515759252886,310.462722214129L280.19360890129724,314.0231471774784L279.4114793135406,318.8266456574991L279.75920156290476,322.1794859033085L278.6450414908376,325.61004900085834L279.1442570683166,325L279.2604454082045,326L279.13663676455394,327.0196231433383L278.7724065977885,327.979985741679L278.1889239823139,328.8252714756841L277.42010095515616,329.5063522987776L276.51062154677686,329.98364376152085L275.5133447431226,330.22940566167387L274.48623231887865,330.22935430605264L273.4889800964008,329.9834926794482L272.57954842171506,329.5061102711507L271.81079350648366,328.82495256916L271.2273954224997,327.9796084911199L270.86326129381507,327.01920947456443L270.73955461309777,325.9995739554599L270.72230768412965,325L270.5380966815774,323L270.344449915079,319.96625671852576L271.3383407484053,314.8345851871013L272.25843131193443,310.8134696347855L274.5611582821076,304.5251088386019L275.4645158729029,300.07203127387413L279.2032419397131,292.3728505532647L281.26684586594683,287.5067383463787L283.4874031457935,282.46263250929167L287.32562308284895,278.3459238473647L288.94299155558633,275.94512832728213L291.4345255952984,273.453999698379L293.15057052270413,271.08465955434235L295.6777182508939,268.6777182508939L297.81194513200626,266.81194513200626L299.9744719135738,264.9744719135738L302.16574361125873,263.16574361125873L303.7693961713195,262.04852513838665L306,261.6375081395418L307.4673264811791,261.9371211087232L309.4776796106819,263.5223203893181L310.35006240006413,264.64993759993587L312.06549575617987,266.96862167080957L312.90787950821573,269.39474699452285L314.3401135159451,270.3465702295258L316.00707106781186,273.99292893218814L316,274L315.99292893218814,274.00707106781186L313.6598864840549,271.6534297704742L311.09212049178427,270.60525300547715L309.93450424382013,269.03137832919043L307.64993759993587,267.35006240006413L306.5223203893181,266.4776796106819L306.5326735188209,266.0628788912768L306,266.3624918604582L306.2306038286805,265.95147486161335L305.83425638874127,266.83425638874127L304.0255280864262,269.0255280864262L302.18805486799374,271.18805486799374L300.3222817491061,273.3222817491061L298.84942947729587,274.91534044565765L296.5654744047016,278.546000301621L295.05700844441367,280.05487167271787L292.67437691715105,283.6540761526353L290.5125968542065,285.53736749070833L288.73315413405317,290.4932616536213L286.7967580602869,295.6271494467353L284.5354841270971,301.92796872612587L283.4388417178924,307.4748911613981L281.74156868806557,313.1865303652145L280.6616592515947,317.1654148128987L279.655550084921,320.03374328147424L279.4619033184226,323L279.27769231587035,325L279.26044538690223,325.9995739554599L279.13673870618493,327.01920947456443L278.7726045775003,327.9796084911199L278.18920649351634,328.82495256916L277.42045157828494,329.5061102711507L276.5110199035992,329.9834926794482L275.51376768112135,330.22935430605264L274.4866552568774,330.22940566167387L273.48937845322314,329.98364376152085L272.57989904484384,329.5063522987776L271.8110760176861,328.8252714756841L271.2275934022115,327.979985741679L270.86336323544606,327.0196231433383L270.7395545917955,326L270.8557429316834,325L271.3549585091624,322.38995099914166L272.24079843709524,321.8205140966915L272.5885206864594,317.1733543425009L273.80639109870276,313.9768528225216L274.18484240747114,309.537277785871L275.4957428756793,303.64223292302256L276.7779430941474,296.7222367960701L278.0224627537283,288.7175001250937L279.3583165433715,281.99766634725074L279.7147175170017,274L280.08714061000694,269L280.99,259Z" fill="white">

</path><path d="M358.01,264L358.9538274766527,273L359.330111328037,278.00189075302245L358.70427448922294,285.24346309073024L358.0019301940907,293.2520193079593L356.1722706737914,301.5410499611928L355.4127331629928,309.3015916453741L354.56032515617625,317.3205466150596L353.8867414464646,322.56591893541975L354.2816160382161,326L354.57152335897274,329L354.7010574957428,330L354.5935046779698,330.88574867553L354.2770971994731,331.7200175964215L353.77022467776925,332.4543190137943L353.10234656763504,333.0459752947697L352.3122799762115,333.46059934849853L351.4459436109134,333.67409320549706L350.5536889819964,333.6740485927656L349.6873739704156,333.46046810319814L348.8973488453477,333.0457650448834L348.2295299041809,332.4540419790554L347.722730815153,331.71968987810203L347.4064067651303,330.8853893206341L347.29894252276245,329.99962989425103L347.3253345299501,328.8245503359658L348.4306606425154,325.42338934119465L347.8265809773066,323L347.7834513166107,316.99056657152113L348.84062500796415,310.3067708346607L349.8460668459357,304.3045947389225L352.1357511365279,296.882720061853L355.46659289544215,290.23329644772105L358.5428206653565,284.27043394688314L361.7494253198683,278.9235831879266L366.6368283523979,274.85841806219236L368.14364059127115,273.12179258224876L371.7015133995635,270.58056848989867L373.09796019798307,269.0019623199363L376.10711465157055,267.2142293031411L378.0947763471926,266.18955269438516L380.08885647950007,265.18684857969055L382.7025764401242,263.5467023219462L385.3595723148073,262.28618323289635L388.16202339731683,262.30099231548456L387.99640960117483,261.82273351898357L391,261.02125008894876L392.81688943956914,261.3940755568946L396.6585716022843,264.3616091866314L398.83842229279026,268.10771847147316L400.5214605265331,271.3225127518637L402.1970174891902,275.9156492745747L402.8055789777439,280.5107006514541L404.11458756649824,283.27179460290273L404.7731281001519,286.75619220227054L405.01,291L405,291L404.99,291L403.2268718998481,287.24380779772946L401.88541243350176,284.72820539709727L399.1944210222561,281.4892993485459L397.8029825108098,278.0843507254253L395.4785394734669,274.6774872481363L393.16157770720974,271.89228152852684L391.3414283977157,269.6383908133686L391.18311056043086,268.6059244431054L391,268.97874991105124L392.00359039882517,268.17726648101643L389.83797660268317,269.69900768451544L388.6404276851927,269.71381676710365L387.2974235598758,270.4532976780538L383.91114352049993,272.81315142030945L381.9052236528074,273.81044730561484L379.89288534842945,274.7857706968589L378.90203980201693,274.9980376800637L376.2984866004365,277.41943151010133L373.85635940872885,278.87820741775124L371.3631716476021,281.14158193780764L368.2505746801317,283.0764168120734L365.4571793346435,287.72956605311686L362.53340710455785,293.76670355227895L359.8642488634721,299.117279938147L358.1539331540643,305.6954052610775L357.15937499203585,311.6932291653393L356.2165486833893,317.00943342847887L356.1734190226934,323L355.5693393574846,328.57661065880535L354.6746654700499,329.1754496640342L354.70105747723755,329.99962989425103L354.5935932348697,330.8853893206341L354.277269184847,331.71968987810203L353.7704700958191,332.4540419790554L353.1026511546523,333.0457650448834L352.3126260295844,333.46046810319814L351.4463110180036,333.6740485927656L350.5540563890866,333.67409320549706L349.6877200237885,333.46059934849853L348.89765343236496,333.0459752947697L348.22977532223075,332.4543190137943L347.7229028005269,331.7200175964215L347.4064953220302,330.88574867553L347.2989425042572,330L347.42847664102726,329L347.7183839617839,326L348.1132585535354,321.43408106458025L349.43967484382375,316.6794533849404L350.5872668370072,308.6984083546259L351.8277293262086,300.4589500388072L353.9980698059093,292.7479806920407L355.29572551077706,284.75653690926976L356.669888671963,277.99810924697755L357.0461725233473,273L357.99,264Z" fill="white">

</path><path d="M452.01,290L453.14288428934447,298L453.4125657651191,300.93255598613365L455.6207159886451,304.19251976967837L457.0104601136902,307.32984662876993L458.2927147191284,310.21204085028506L460.28613464317516,312.4632972385588L462.1459441742507,313.8540558257493L463.21880719800646,314.70779588212514L464.37184789675905,314.89422961652764L464,314.45137982775236L465,314.333209981806L467,314.1281604534179L467.1742024542658,314.3547532738458L467.0220571432943,312.9992791545711L470.4217858685802,310.37140233355734L471.08632453225465,308.39040019529943L474.10955608318716,304.08216706239034L476.99864704944713,300.0169910943732L478.41457261067666,296.70179337826636L480.6019321990816,293.0740360299736L482.19110017900823,289.6265395996861L482.71440508862867,286.6773324878008L483.72731218400696,283.24376081352494L484.62224785950684,279.54266656212815L487.26383944489527,274.97532303722414L487.5386453175448,272.604630263081L488.81284534841535,269.70878515784403L488.25303042581083,269.72560661937143L489.11070114670974,268L489.2818443097401,266.5905545468822L489.7853269501548,265.2630261297221L490.5918866332368,264.09457076249873L491.65464607230945,263.1530991260547L492.91183763884027,262.4933295961351L494.29039329991355,262.1536080088179L495.71019133573657,262.1536789987197L497.0887130177584,262.4935384399042L498.34583860105033,263.1534336856814L499.4085038876457,264.0950115933618L500.2149467211584,265.2635476107111L500.71829660621415,266.5911263694975L500.8892988238438,268.0005889298843L500.8908490860408,270L500.9411040364425,273L500.9818755309227,276.04335644684346L499.7725080464081,281.4415694456506L498.57817686963034,286.92969614493836L497.336095261361,292.8893147440203L495.9774576006939,299.71098796620566L494.2366111266394,308.4759092929611L491.76267814534094,316.9406887786487L488.044683217985,327.82931534824104L485.5887230042845,338.47253014303783L482.1568067147403,348.64658933888205L480.0950011303097,357.4655558067355L478.0172795382788,366.4511819658573L474.9960790271657,374.74864126175066L472.1347368790341,381.91233532296L470.4097887444042,388.7116670832377L467.4129606948088,394.4477764168853L464.6269078209505,399.57809677391333L461.6637299187581,403.9977974390686L458.8144262512193,408.1605696474007L454.24177972887566,411.9895715266882L447.9937807502797,416.0104927331408L440.3378484560741,419.1241212943796L430.87422322236614,421.62745273341335L421.4942412135647,423.2248902135433L409.25876554563393,424.55393698724356L399.0995258450498,424.9938508428837L387.05508916757583,426.33515721448384L381,426.01L381,426L381,425.99L386.94491083242417,425.66484278551616L398.9004741549502,423.0061491571163L408.74123445436607,421.44606301275644L420.5057587864353,418.7751097864567L429.12577677763386,416.37254726658665L437.6621515439259,412.8758787056204L444.0062192497203,409.9895072668592L449.75822027112434,406.0104284733118L453.1855737487807,403.8394303525993L456.3362700812419,400.0022025609314L459.3730921790495,396.42190322608667L462.5870393051912,391.5522235831147L465.5902112555958,387.2883329167623L467.8652631209659,380.08766467704L471.0039209728343,373.25135873824934L473.9827204617212,365.5488180341427L475.9049988696903,356.5344441932645L477.8431932852597,347.35341066111795L480.4112769957155,337.52746985696217L481.955316782015,326.17068465175896L484.23732185465906,315.0593112213513L485.7633888733606,307.5240907070389L486.0225423993061,298.28901203379434L486.663904738639,291.1106852559797L487.42182313036966,285.07030385506164L488.2274919535919,278.5584305543494L489.0181244690773,275.95664355315654L489.0588959635575,273L489.1091509139592,270L489.1107011761562,268.0005889298843L489.28170339378585,266.5911263694975L489.7850532788416,265.2635476107111L490.5914961123543,264.0950115933618L491.65416139894967,263.1534336856814L492.9112869822416,262.4935384399042L494.28980866426343,262.1536789987197L495.70960670008645,262.1536080088179L497.08816236115973,262.4933295961351L498.34535392769055,263.1530991260547L499.4081133667632,264.09457076249873L500.2146730498452,265.2630261297221L500.7181556902599,266.5905545468822L500.88929885329026,268L499.74696957418917,270.27439338062857L499.18715465158465,274.29121484215597L498.4613546824552,275.395369736919L496.73616055510473,281.02467696277586L495.37775214049316,282.45733343787185L494.27268781599304,286.75623918647506L493.28559491137133,289.3226675121992L491.80889982099177,294.3734604003139L489.3980678009184,298.9259639700264L487.58542738932334,301.29820662173364L485.00135295055287,305.9830089056268L481.89044391681284,309.91783293760966L478.91367546774535,313.60959980470057L475.5782141314198,317.62859766644266L472.9779428567057,319.0007208454289L468.8257975457342,321.6452467261542L467,321.8718395465821L465,321.666790018194L464,321.54862017224764L461.62815210324095,321.10577038347236L458.78119280199354,319.29220411787486L457.8540558257493,318.1459441742507L455.71386535682484,315.5367027614412L453.7072852808716,311.78795914971494L452.9895398863098,308.67015337123007L452.3792840113549,305.80748023032163L450.5874342348809,301.06744401386635L450.85711571065553,298L451.99,290Z" fill="white">

</path>
</mask>
</svg>